<svg width="44" height="18" viewBox="0 0 44 18" fill="none" xmlns="http://www.w3.org/2000/svg">
<path d="M2 7.8C1.33726 7.8 0.8 8.33726 0.8 9C0.8 9.66274 1.33726 10.2 2 10.2V7.8ZM42.8485 9.84853C43.3172 9.3799 43.3172 8.6201 42.8485 8.15147L35.2118 0.514718C34.7431 0.0460892 33.9833 0.0460892 33.5147 0.514718C33.0461 0.983348 33.0461 1.74315 33.5147 2.21177L40.3029 9L33.5147 15.7882C33.0461 16.2569 33.0461 17.0167 33.5147 17.4853C33.9833 17.9539 34.7431 17.9539 35.2118 17.4853L42.8485 9.84853ZM2 10.2H42V7.8H2V10.2Z" fill="white"/>
</svg>
